<svg width="50" height="50" viewBox="0 0 50 50" fill="none" xmlns="http://www.w3.org/2000/svg">
<path d="M6.56832 24.585C7.03999 24.585 7.49165 24.5933 7.94499 24.5833C8.91332 24.56 9.88332 24.5567 10.85 24.4883C11.9867 24.4083 13.1167 24.2133 14.255 24.1683C15.915 24.1017 17.58 24.1633 19.2383 24.0967C20.5067 24.045 21.77 23.8367 23.0383 23.7767C23.995 23.7317 24.9583 23.8067 25.9183 23.84C26.0217 23.8433 26.1367 23.9667 26.2233 23.9433C28.1733 23.4317 30.1233 24.1117 32.0917 23.9233C33.5383 23.785 35.0267 24.095 36.4983 24.205C36.6617 24.2167 36.8483 24.2733 36.9867 24.215C38.6783 23.515 40.34 24.475 42.0066 24.2933C43.245 24.1583 44.3933 24.5 45.5717 24.7C45.9016 24.7567 46.2083 24.9517 46.5833 25.1067C46.0333 26.01 45.2933 26.185 44.43 26.23C42.9866 26.3033 41.5466 26.5633 40.1067 26.5533C38.0683 26.54 36.0317 26.2883 33.9933 26.2617C32.1717 26.2383 30.3483 26.4183 28.5267 26.435C27.595 26.4433 26.6617 26.255 25.7267 26.2267C24.9033 26.2017 24.0767 26.2617 23.2533 26.3133C22.03 26.39 20.8083 26.52 19.585 26.5667C19.1383 26.5833 18.6867 26.3617 18.2367 26.3617C17.4233 26.3617 16.61 26.5017 15.8 26.4867C14.78 26.4683 13.76 26.2767 12.745 26.305C11.885 26.3283 11.0317 26.56 10.2983 26.68C12.1533 27.675 14.0483 28.7317 15.9817 29.7117C16.99 30.2233 18.07 30.595 19.1117 31.0417C19.3633 31.15 19.635 31.26 19.8233 31.445C19.9933 31.6117 20.1733 31.9017 20.1417 32.1033C20.1083 32.3117 19.8217 32.6383 19.6483 32.6383C18.8133 32.6317 17.955 32.6317 17.1517 32.44C16.2417 32.2217 15.3867 31.785 14.4967 31.4683C12.7133 30.8367 10.91 30.26 9.14665 29.5783C8.58332 29.3617 8.14332 28.8483 7.60832 28.5333C6.63165 27.955 5.53832 27.5367 4.65332 26.8467C3.06499 25.61 2.91665 23.9017 4.93165 22.885C5.16332 22.7683 5.33999 22.55 5.55332 22.395C6.16665 21.9483 6.77999 21.4983 7.40832 21.0717C7.80332 20.8033 8.22165 20.5717 8.63332 20.33C9.71999 19.6933 10.8267 19.0883 11.89 18.415C12.675 17.9183 13.3983 17.325 14.1617 16.7917C14.5233 16.54 14.8917 16.2083 15.2967 16.1333C15.7183 16.055 16.2633 16.12 16.62 16.3417C17.1417 16.6667 16.8433 17.1 16.5 17.4383C15.8467 18.0783 15.19 18.7167 14.5383 19.3583C14.2517 19.64 14.0117 19.99 13.6817 20.2017C13.21 20.5033 12.6733 20.7067 12.1667 20.9517C11.9733 21.045 11.7133 21.095 11.6 21.2483C10.9217 22.17 9.90665 22.555 8.93499 23.0267C8.63332 23.1733 8.40332 23.4633 8.11665 23.65C7.64499 23.9583 7.15332 24.235 6.56832 24.5867V24.585Z" fill="#C2FF13"/>
</svg>
